<?xml version="1.0" encoding="UTF-8" standalone="no"?>
<!DOCTYPE svg PUBLIC "-//W3C//DTD SVG 1.1//EN" "http://www.w3.org/Graphics/SVG/1.1/DTD/svg11.dtd">
<svg width="100%" height="100%" viewBox="340 170 415 470" version="1.1" xmlns="http://www.w3.org/2000/svg" xmlns:xlink="http://www.w3.org/1999/xlink" xml:space="preserve" xmlns:serif="http://www.serif.com/" style="fill-rule:evenodd;clip-rule:evenodd;stroke-linejoin:round;stroke-miterlimit:2;">
    <g>
        <path d="M470.596,599.777L469.949,600.507C469.846,600.431 469.251,600.894 469.135,599.901C469.113,599.707 469.026,598.961 469.081,597.46C470.175,567.925 468.705,396.292 469.844,394.188C470.248,393.441 473.921,393.728 614.047,393.698C702.102,393.68 729.627,458.617 735.605,488.964C751.275,568.513 694.692,640.005 611.659,636.074C610.073,635.999 610.877,632.792 610.209,630.557C606.914,619.528 597.319,625.983 596.668,620.14C591.738,575.894 600.651,566.203 608.082,551.977C624.136,521.243 607.121,506.914 610.272,492.306C613.278,478.37 631.618,488.957 634.406,466.36C635.471,457.729 627.547,461.881 622.26,450.912C617.604,441.252 615.547,442.221 604.263,438.218C600.494,436.881 601.589,429.198 600.85,423.534C600.548,421.219 595.848,425.829 593.339,430.931C592.584,432.466 591.906,433.23 591.239,431.657C587.794,423.537 588.512,416.421 584.961,420.265C575.245,430.783 575.419,441.283 569.711,447.088C554.819,462.233 565.346,485.306 549.789,498.338C538.052,508.17 498.135,513.092 479.634,559.368C470.461,582.311 470.91,594.908 470.596,599.777Z" style="fill:white;"/>
        <path d="M551.724,622.859C549.703,622.669 548.966,623.427 548.869,621.866C548.865,621.791 549.507,621.202 549.566,621.148C573.643,599.044 563.644,570.119 547.856,561.585C547.711,561.507 540.76,557.623 547.679,559.537C564.102,564.081 568.957,575.674 570.77,588.587C574.03,611.789 578.521,620.557 583.206,634.679C583.852,636.626 578.884,636.227 571.977,636.12C570.659,636.1 570.419,635.334 570.35,634.658C569.223,623.623 560.943,623.394 551.724,622.859Z" style="fill:white;"/>
        <path d="M614.861,314.696C630.18,314.651 648.235,315.368 658.349,290.668C663.267,278.66 668.595,272.535 655.369,267.93C625.862,257.655 620.654,258.302 615.839,247.779C614.06,243.89 613.418,233.729 588.978,225.159C579.712,221.909 557.169,218.129 538.93,227.115C527.162,232.913 504.877,251.043 509.835,264.792C513.572,275.156 560.744,331.692 562.088,275.371C562.572,255.085 555.856,242.633 559.432,245.821C559.897,246.235 567.015,267.758 567.387,279.406C567.788,291.982 566.567,309.785 548.54,308.262C538.375,307.403 515.971,289.608 505.325,274.788C502.533,270.901 502.323,281.427 484.245,304.237C483.259,305.482 469.327,323.06 469.409,317.435C469.698,297.515 469.036,174.898 469.774,174.056C470.303,173.454 470.452,173.461 593.007,173.457C616.762,173.456 655.687,173.085 691.408,210.13C728.122,248.206 730.107,344.872 638.382,371.857C624.229,376.021 617.919,376.6 575.208,376.344C572.024,376.325 573.606,373.503 575.345,360.362C576.685,350.235 578.588,333.646 586.614,323.995C596.667,311.907 613.441,314.654 614.861,314.696Z" style="fill:white;"/>
        <path d="M441.952,342.538C441.828,471.22 442.185,634.876 441.694,635.472C440.894,636.444 440.575,635.969 352.676,636.101C345.37,636.112 341.973,636.873 341.97,633.85C341.931,597.078 341.495,175.675 342.113,174.203C342.473,173.346 342.86,173.507 431.168,173.468C436.306,173.466 441.769,172.791 441.915,175.008C441.973,175.885 441.927,284.39 441.952,342.538Z" style="fill:white;"/>
    </g>
</svg>
