<?xml version="1.0" encoding="UTF-8" standalone="no"?>
<!DOCTYPE svg PUBLIC "-//W3C//DTD SVG 1.1//EN" "http://www.w3.org/Graphics/SVG/1.1/DTD/svg11.dtd">
<svg width="100%" height="100%" viewBox="200 155 680 720" version="1.1" xmlns="http://www.w3.org/2000/svg" xmlns:xlink="http://www.w3.org/1999/xlink" xml:space="preserve" xmlns:serif="http://www.serif.com/" style="fill-rule:evenodd;clip-rule:evenodd;stroke-linejoin:round;stroke-miterlimit:2;">
    <g>
        <g id="_03" serif:id="03">
            <path d="M470.596,599.777L469.949,600.507C469.846,600.431 469.251,600.894 469.135,599.901C469.113,599.707 469.026,598.961 469.081,597.46C470.175,567.925 468.705,396.292 469.844,394.188C470.248,393.441 473.921,393.728 614.047,393.698C702.102,393.68 729.627,458.617 735.605,488.964C751.275,568.513 694.692,640.005 611.659,636.074C610.073,635.999 610.877,632.792 610.209,630.557C606.914,619.528 597.319,625.983 596.668,620.14C591.738,575.894 600.651,566.203 608.082,551.977C624.136,521.243 607.121,506.914 610.272,492.306C613.278,478.37 631.618,488.957 634.406,466.36C635.471,457.729 627.547,461.881 622.26,450.912C617.604,441.252 615.547,442.221 604.263,438.218C600.494,436.881 601.589,429.198 600.85,423.534C600.548,421.219 595.848,425.829 593.339,430.931C592.584,432.466 591.906,433.23 591.239,431.657C587.794,423.537 588.512,416.421 584.961,420.265C575.245,430.783 575.419,441.283 569.711,447.088C554.819,462.233 565.346,485.306 549.789,498.338C538.052,508.17 498.135,513.092 479.634,559.368C470.461,582.311 470.91,594.908 470.596,599.777Z" style="fill:white;"/>
            <path d="M551.724,622.859C549.703,622.669 548.966,623.427 548.869,621.866C548.865,621.791 549.507,621.202 549.566,621.148C573.643,599.044 563.644,570.119 547.856,561.585C547.711,561.507 540.76,557.623 547.679,559.537C564.102,564.081 568.957,575.674 570.77,588.587C574.03,611.789 578.521,620.557 583.206,634.679C583.852,636.626 578.884,636.227 571.977,636.12C570.659,636.1 570.419,635.334 570.35,634.658C569.223,623.623 560.943,623.394 551.724,622.859Z" style="fill:white;"/>
            <path d="M614.861,314.696C630.18,314.651 648.235,315.368 658.349,290.668C663.267,278.66 668.595,272.535 655.369,267.93C625.862,257.655 620.654,258.302 615.839,247.779C614.06,243.89 613.418,233.729 588.978,225.159C579.712,221.909 557.169,218.129 538.93,227.115C527.162,232.913 504.877,251.043 509.835,264.792C513.572,275.156 560.744,331.692 562.088,275.371C562.572,255.085 555.856,242.633 559.432,245.821C559.897,246.235 567.015,267.758 567.387,279.406C567.788,291.982 566.567,309.785 548.54,308.262C538.375,307.403 515.971,289.608 505.325,274.788C502.533,270.901 502.323,281.427 484.245,304.237C483.259,305.482 469.327,323.06 469.409,317.435C469.698,297.515 469.036,174.898 469.774,174.056C470.303,173.454 470.452,173.461 593.007,173.457C616.762,173.456 655.687,173.085 691.408,210.13C728.122,248.206 730.107,344.872 638.382,371.857C624.229,376.021 617.919,376.6 575.208,376.344C572.024,376.325 573.606,373.503 575.345,360.362C576.685,350.235 578.588,333.646 586.614,323.995C596.667,311.907 613.441,314.654 614.861,314.696Z" style="fill:white;"/>
            <path d="M441.952,342.538C441.828,471.22 442.185,634.876 441.694,635.472C440.894,636.444 440.575,635.969 352.676,636.101C345.37,636.112 341.973,636.873 341.97,633.85C341.931,597.078 341.495,175.675 342.113,174.203C342.473,173.346 342.86,173.507 431.168,173.468C436.306,173.466 441.769,172.791 441.915,175.008C441.973,175.885 441.927,284.39 441.952,342.538Z" style="fill:white;"/>
        </g>
        <g transform="matrix(7.50248,0,0,7.50248,-2116.342009,-4285.807617)">
            <g>
                <g transform="matrix(12,0,0,12,311.677852,675.543624)">
                    <path d="M0.301,-0L-0.005,-0.7L0.136,-0.7L0.409,-0.067L0.328,-0.067L0.604,-0.7L0.734,-0.7L0.429,-0L0.301,-0Z" style="fill:white;fill-rule:nonzero;"/>
                </g>
                <g transform="matrix(12,0,0,12,320.245852,675.543624)">
                    <path d="M0.214,-0.409L0.562,-0.409L0.562,-0.302L0.214,-0.302L0.214,-0.409ZM0.224,-0.109L0.619,-0.109L0.619,-0L0.094,-0L0.094,-0.7L0.605,-0.7L0.605,-0.591L0.224,-0.591L0.224,-0.109Z" style="fill:white;fill-rule:nonzero;"/>
                </g>
                <g transform="matrix(12,0,0,12,328.285852,675.543624)">
                    <path d="M0.236,-0L0.236,-0.59L0.004,-0.59L0.004,-0.7L0.598,-0.7L0.598,-0.59L0.366,-0.59L0.366,-0L0.236,-0Z" style="fill:white;fill-rule:nonzero;"/>
                </g>
                <g transform="matrix(12,0,0,12,335.509852,675.543624)">
                    <path d="M0.214,-0.409L0.562,-0.409L0.562,-0.302L0.214,-0.302L0.214,-0.409ZM0.224,-0.109L0.619,-0.109L0.619,-0L0.094,-0L0.094,-0.7L0.605,-0.7L0.605,-0.591L0.224,-0.591L0.224,-0.109Z" style="fill:white;fill-rule:nonzero;"/>
                </g>
                <g transform="matrix(12,0,0,12,343.549852,675.543624)">
                    <path d="M0.094,-0L0.094,-0.7L0.382,-0.7C0.444,-0.7 0.497,-0.69 0.541,-0.67C0.586,-0.65 0.62,-0.621 0.644,-0.584C0.668,-0.547 0.68,-0.502 0.68,-0.451C0.68,-0.4 0.668,-0.355 0.644,-0.319C0.62,-0.282 0.586,-0.253 0.541,-0.234C0.497,-0.214 0.444,-0.204 0.382,-0.204L0.166,-0.204L0.224,-0.263L0.224,-0L0.094,-0ZM0.552,-0L0.375,-0.254L0.514,-0.254L0.692,-0L0.552,-0ZM0.224,-0.249L0.166,-0.311L0.376,-0.311C0.433,-0.311 0.476,-0.323 0.506,-0.348C0.535,-0.373 0.549,-0.407 0.549,-0.451C0.549,-0.496 0.535,-0.53 0.506,-0.554C0.476,-0.578 0.433,-0.59 0.376,-0.59L0.166,-0.59L0.224,-0.654L0.224,-0.249Z" style="fill:white;fill-rule:nonzero;"/>
                </g>
                <g transform="matrix(12,0,0,12,352.321852,675.543624)">
                    <rect x="0.094" y="-0.7" width="0.13" height="0.7" style="fill:white;fill-rule:nonzero;"/>
                </g>
                <g transform="matrix(12,0,0,12,356.149852,675.543624)">
                    <path d="M0.094,-0L0.094,-0.7L0.201,-0.7L0.64,-0.161L0.587,-0.161L0.587,-0.7L0.716,-0.7L0.716,-0L0.609,-0L0.17,-0.539L0.223,-0.539L0.223,-0L0.094,-0Z" style="fill:white;fill-rule:nonzero;"/>
                </g>
                <g transform="matrix(12,0,0,12,365.869852,675.543624)">
                    <path d="M-0.005,-0L0.31,-0.7L0.438,-0.7L0.754,-0L0.618,-0L0.347,-0.631L0.399,-0.631L0.129,-0L-0.005,-0ZM0.14,-0.162L0.175,-0.264L0.553,-0.264L0.588,-0.162L0.14,-0.162Z" style="fill:white;fill-rule:nonzero;"/>
                </g>
                <g transform="matrix(12,0,0,12,374.857852,675.543624)">
                    <path d="M0.094,-0L0.094,-0.7L0.382,-0.7C0.444,-0.7 0.497,-0.69 0.541,-0.67C0.586,-0.65 0.62,-0.621 0.644,-0.584C0.668,-0.547 0.68,-0.502 0.68,-0.451C0.68,-0.4 0.668,-0.355 0.644,-0.319C0.62,-0.282 0.586,-0.253 0.541,-0.234C0.497,-0.214 0.444,-0.204 0.382,-0.204L0.166,-0.204L0.224,-0.263L0.224,-0L0.094,-0ZM0.552,-0L0.375,-0.254L0.514,-0.254L0.692,-0L0.552,-0ZM0.224,-0.249L0.166,-0.311L0.376,-0.311C0.433,-0.311 0.476,-0.323 0.506,-0.348C0.535,-0.373 0.549,-0.407 0.549,-0.451C0.549,-0.496 0.535,-0.53 0.506,-0.554C0.476,-0.578 0.433,-0.59 0.376,-0.59L0.166,-0.59L0.224,-0.654L0.224,-0.249Z" style="fill:white;fill-rule:nonzero;"/>
                </g>
                <g transform="matrix(12,0,0,12,383.629852,675.543624)">
                    <rect x="0.094" y="-0.7" width="0.13" height="0.7" style="fill:white;fill-rule:nonzero;"/>
                </g>
                <g transform="matrix(12,0,0,12,387.457852,675.543624)">
                    <path d="M-0.005,-0L0.31,-0.7L0.438,-0.7L0.754,-0L0.618,-0L0.347,-0.631L0.399,-0.631L0.129,-0L-0.005,-0ZM0.14,-0.162L0.175,-0.264L0.553,-0.264L0.588,-0.162L0.14,-0.162Z" style="fill:white;fill-rule:nonzero;"/>
                </g>
            </g>
        </g>
        <g transform="matrix(7.50248,0,0,7.50248,-2119.965908,-4163.410465)">
            <g>
                <g transform="matrix(19.859637,0,0,19.859637,311.677852,675.543624)">
                    <path d="M0.083,-0L0.083,-0.7L0.425,-0.7C0.513,-0.7 0.579,-0.683 0.624,-0.65C0.668,-0.617 0.69,-0.573 0.69,-0.518C0.69,-0.481 0.681,-0.45 0.663,-0.422C0.645,-0.396 0.62,-0.375 0.589,-0.36C0.558,-0.345 0.522,-0.338 0.481,-0.338L0.5,-0.379C0.544,-0.379 0.583,-0.372 0.617,-0.357C0.651,-0.343 0.678,-0.322 0.697,-0.294C0.716,-0.266 0.725,-0.232 0.725,-0.191C0.725,-0.131 0.701,-0.084 0.654,-0.051C0.607,-0.017 0.537,-0 0.445,-0L0.083,-0ZM0.244,-0.122L0.433,-0.122C0.475,-0.122 0.507,-0.129 0.528,-0.143C0.55,-0.156 0.561,-0.178 0.561,-0.208C0.561,-0.237 0.55,-0.259 0.528,-0.274C0.507,-0.288 0.475,-0.295 0.433,-0.295L0.232,-0.295L0.232,-0.413L0.405,-0.413C0.444,-0.413 0.474,-0.42 0.495,-0.433C0.517,-0.447 0.527,-0.468 0.527,-0.496C0.527,-0.523 0.517,-0.544 0.495,-0.557C0.474,-0.571 0.444,-0.578 0.405,-0.578L0.244,-0.578L0.244,-0.122Z" style="fill:white;fill-rule:nonzero;"/>
                </g>
                <g transform="matrix(19.859637,0,0,19.859637,326.870475,675.543624)">
                    <path d="M0.394,0.012C0.295,0.012 0.217,-0.016 0.161,-0.071C0.105,-0.126 0.077,-0.205 0.077,-0.308L0.077,-0.7L0.239,-0.7L0.239,-0.314C0.239,-0.247 0.253,-0.199 0.28,-0.17C0.307,-0.141 0.346,-0.126 0.395,-0.126C0.444,-0.126 0.483,-0.141 0.51,-0.17C0.537,-0.199 0.551,-0.247 0.551,-0.314L0.551,-0.7L0.711,-0.7L0.711,-0.308C0.711,-0.205 0.683,-0.126 0.627,-0.071C0.571,-0.016 0.493,0.012 0.394,0.012Z" style="fill:white;fill-rule:nonzero;"/>
                </g>
                <g transform="matrix(19.859637,0,0,19.859637,342.519869,675.543624)">
                    <path d="M0.083,-0L0.083,-0.7L0.245,-0.7L0.245,-0.132L0.596,-0.132L0.596,-0L0.083,-0Z" style="fill:white;fill-rule:nonzero;"/>
                </g>
                <g transform="matrix(19.859637,0,0,19.859637,354.51509,675.543624)">
                    <path d="M0.083,-0L0.083,-0.7L0.217,-0.7L0.63,-0.196L0.565,-0.196L0.565,-0.7L0.725,-0.7L0.725,-0L0.592,-0L0.178,-0.504L0.243,-0.504L0.243,-0L0.083,-0Z" style="fill:white;fill-rule:nonzero;"/>
                </g>
                <g transform="matrix(19.859637,0,0,19.859637,370.561677,675.543624)">
                    <path d="M0.232,-0.418L0.569,-0.418L0.569,-0.292L0.232,-0.292L0.232,-0.418ZM0.244,-0.13L0.625,-0.13L0.625,-0L0.083,-0L0.083,-0.7L0.612,-0.7L0.612,-0.57L0.244,-0.57L0.244,-0.13Z" style="fill:white;fill-rule:nonzero;"/>
                </g>
                <g transform="matrix(19.859637,0,0,19.859637,383.887493,675.543624)">
                    <path d="M0.313,0.012C0.257,0.012 0.203,0.004 0.152,-0.011C0.101,-0.025 0.059,-0.045 0.028,-0.069L0.083,-0.191C0.113,-0.17 0.148,-0.152 0.19,-0.139C0.231,-0.125 0.272,-0.118 0.314,-0.118C0.346,-0.118 0.372,-0.121 0.392,-0.128C0.411,-0.134 0.426,-0.143 0.435,-0.154C0.444,-0.165 0.449,-0.178 0.449,-0.193C0.449,-0.212 0.442,-0.227 0.427,-0.238C0.412,-0.249 0.393,-0.258 0.369,-0.265C0.345,-0.272 0.319,-0.278 0.289,-0.285C0.261,-0.291 0.232,-0.299 0.203,-0.308C0.173,-0.317 0.147,-0.329 0.123,-0.344C0.099,-0.359 0.08,-0.378 0.065,-0.402C0.05,-0.426 0.042,-0.457 0.042,-0.494C0.042,-0.534 0.053,-0.571 0.074,-0.604C0.096,-0.636 0.129,-0.663 0.173,-0.682C0.216,-0.702 0.271,-0.712 0.337,-0.712C0.381,-0.712 0.424,-0.707 0.467,-0.697C0.51,-0.686 0.547,-0.671 0.58,-0.65L0.53,-0.527C0.497,-0.546 0.465,-0.559 0.432,-0.569C0.399,-0.578 0.367,-0.582 0.336,-0.582C0.305,-0.582 0.279,-0.578 0.259,-0.571C0.239,-0.564 0.225,-0.554 0.216,-0.542C0.207,-0.531 0.203,-0.517 0.203,-0.502C0.203,-0.484 0.21,-0.47 0.225,-0.459C0.24,-0.448 0.259,-0.439 0.283,-0.432C0.307,-0.425 0.333,-0.419 0.362,-0.412C0.392,-0.405 0.421,-0.398 0.45,-0.389C0.478,-0.38 0.505,-0.369 0.529,-0.354C0.553,-0.339 0.573,-0.32 0.588,-0.296C0.603,-0.272 0.61,-0.242 0.61,-0.205C0.61,-0.166 0.599,-0.13 0.577,-0.097C0.555,-0.064 0.522,-0.038 0.479,-0.018C0.435,0.002 0.38,0.012 0.313,0.012Z" style="fill:white;fill-rule:nonzero;"/>
                </g>
            </g>
        </g>
    </g>
</svg>
