<?xml version="1.0" encoding="UTF-8" standalone="no"?>
<!DOCTYPE svg PUBLIC "-//W3C//DTD SVG 1.1//EN" "http://www.w3.org/Graphics/SVG/1.1/DTD/svg11.dtd">
<svg width="100%" height="100%" viewBox="85 430 900 220" version="1.1" xmlns="http://www.w3.org/2000/svg" xmlns:xlink="http://www.w3.org/1999/xlink" xml:space="preserve" xmlns:serif="http://www.serif.com/" style="fill-rule:evenodd;clip-rule:evenodd;stroke-linejoin:round;stroke-miterlimit:2;">
    <g>
        <g id="_03" serif:id="03">
            <path d="M163.338,620.435L163.069,620.739C163.026,620.707 162.778,620.9 162.73,620.486C162.721,620.406 162.685,620.095 162.708,619.47C163.163,607.174 162.551,535.715 163.025,534.839C163.193,534.528 164.723,534.648 223.063,534.635C259.725,534.628 271.184,561.664 273.673,574.299C280.197,607.418 256.639,637.183 222.069,635.547C221.409,635.516 221.744,634.181 221.465,633.25C220.093,628.658 216.098,631.346 215.827,628.913C213.775,610.491 217.486,606.457 220.58,600.534C227.264,587.738 220.18,581.772 221.491,575.69C222.743,569.888 230.379,574.296 231.54,564.887C231.983,561.294 228.684,563.023 226.483,558.456C224.544,554.434 223.688,554.837 218.989,553.171C217.42,552.614 217.876,549.416 217.569,547.057C217.443,546.093 215.486,548.013 214.441,550.137C214.127,550.776 213.845,551.094 213.567,550.439C212.133,547.058 212.432,544.096 210.953,545.696C206.908,550.075 206.981,554.447 204.604,556.864C198.404,563.169 202.787,572.776 196.31,578.201C191.423,582.295 174.804,584.344 167.101,603.611C163.282,613.163 163.469,618.408 163.338,620.435Z" style="fill:white;"/>
            <path d="M197.115,630.045C196.274,629.966 195.967,630.281 195.927,629.631C195.925,629.6 196.192,629.355 196.217,629.332C206.241,620.13 202.078,608.087 195.505,604.534C195.445,604.501 192.551,602.884 195.431,603.681C202.269,605.573 204.29,610.4 205.045,615.776C206.402,625.436 208.272,629.086 210.223,634.966C210.491,635.777 208.423,635.611 205.547,635.566C204.999,635.558 204.899,635.239 204.87,634.958C204.401,630.363 200.953,630.268 197.115,630.045Z" style="fill:white;"/>
            <path d="M223.402,501.743C229.78,501.724 237.297,502.023 241.508,491.739C243.555,486.74 245.774,484.19 240.267,482.272C227.982,477.994 225.814,478.264 223.809,473.883C223.068,472.263 222.801,468.033 212.626,464.465C208.768,463.112 199.382,461.538 191.789,465.279C186.889,467.693 177.611,475.241 179.675,480.966C181.231,485.281 200.871,508.819 201.43,485.37C201.632,476.924 198.836,471.74 200.324,473.067C200.518,473.24 203.482,482.201 203.636,487.05C203.803,492.286 203.295,499.699 195.79,499.064C191.558,498.707 182.23,491.298 177.797,485.128C176.635,483.509 176.547,487.892 169.021,497.388C168.61,497.907 162.81,505.225 162.844,502.884C162.964,494.59 162.689,443.539 162.996,443.189C163.216,442.938 163.278,442.941 214.303,442.939C224.194,442.939 240.4,442.784 255.272,458.208C270.558,474.06 271.384,514.307 233.195,525.542C227.302,527.276 224.675,527.517 206.893,527.41C205.567,527.402 206.226,526.227 206.95,520.756C207.508,516.54 208.3,509.633 211.642,505.615C215.827,500.582 222.811,501.725 223.402,501.743Z" style="fill:white;"/>
            <path d="M151.413,513.335C151.361,566.911 151.509,635.048 151.305,635.296C150.972,635.701 150.839,635.503 114.243,635.558C111.201,635.563 109.787,635.88 109.785,634.621C109.77,619.311 109.588,443.863 109.845,443.25C109.995,442.893 110.156,442.96 146.923,442.944C149.062,442.943 151.336,442.662 151.397,443.585C151.421,443.95 151.402,489.125 151.413,513.335Z" style="fill:white;"/>
        </g>
        <g transform="matrix(7.723003,0,0,7.723003,-2091.924076,-4709.449081)">
            <g>
                <g transform="matrix(12,0,0,12,311.677852,675.543624)">
                    <path d="M0.301,-0L-0.005,-0.7L0.136,-0.7L0.409,-0.067L0.328,-0.067L0.604,-0.7L0.734,-0.7L0.429,-0L0.301,-0Z" style="fill:white;fill-rule:nonzero;"/>
                </g>
                <g transform="matrix(12,0,0,12,320.245852,675.543624)">
                    <path d="M0.214,-0.409L0.562,-0.409L0.562,-0.302L0.214,-0.302L0.214,-0.409ZM0.224,-0.109L0.619,-0.109L0.619,-0L0.094,-0L0.094,-0.7L0.605,-0.7L0.605,-0.591L0.224,-0.591L0.224,-0.109Z" style="fill:white;fill-rule:nonzero;"/>
                </g>
                <g transform="matrix(12,0,0,12,328.285852,675.543624)">
                    <path d="M0.236,-0L0.236,-0.59L0.004,-0.59L0.004,-0.7L0.598,-0.7L0.598,-0.59L0.366,-0.59L0.366,-0L0.236,-0Z" style="fill:white;fill-rule:nonzero;"/>
                </g>
                <g transform="matrix(12,0,0,12,335.509852,675.543624)">
                    <path d="M0.214,-0.409L0.562,-0.409L0.562,-0.302L0.214,-0.302L0.214,-0.409ZM0.224,-0.109L0.619,-0.109L0.619,-0L0.094,-0L0.094,-0.7L0.605,-0.7L0.605,-0.591L0.224,-0.591L0.224,-0.109Z" style="fill:white;fill-rule:nonzero;"/>
                </g>
                <g transform="matrix(12,0,0,12,343.549852,675.543624)">
                    <path d="M0.094,-0L0.094,-0.7L0.382,-0.7C0.444,-0.7 0.497,-0.69 0.541,-0.67C0.586,-0.65 0.62,-0.621 0.644,-0.584C0.668,-0.547 0.68,-0.502 0.68,-0.451C0.68,-0.4 0.668,-0.355 0.644,-0.319C0.62,-0.282 0.586,-0.253 0.541,-0.234C0.497,-0.214 0.444,-0.204 0.382,-0.204L0.166,-0.204L0.224,-0.263L0.224,-0L0.094,-0ZM0.552,-0L0.375,-0.254L0.514,-0.254L0.692,-0L0.552,-0ZM0.224,-0.249L0.166,-0.311L0.376,-0.311C0.433,-0.311 0.476,-0.323 0.506,-0.348C0.535,-0.373 0.549,-0.407 0.549,-0.451C0.549,-0.496 0.535,-0.53 0.506,-0.554C0.476,-0.578 0.433,-0.59 0.376,-0.59L0.166,-0.59L0.224,-0.654L0.224,-0.249Z" style="fill:white;fill-rule:nonzero;"/>
                </g>
                <g transform="matrix(12,0,0,12,352.321852,675.543624)">
                    <rect x="0.094" y="-0.7" width="0.13" height="0.7" style="fill:white;fill-rule:nonzero;"/>
                </g>
                <g transform="matrix(12,0,0,12,356.149852,675.543624)">
                    <path d="M0.094,-0L0.094,-0.7L0.201,-0.7L0.64,-0.161L0.587,-0.161L0.587,-0.7L0.716,-0.7L0.716,-0L0.609,-0L0.17,-0.539L0.223,-0.539L0.223,-0L0.094,-0Z" style="fill:white;fill-rule:nonzero;"/>
                </g>
                <g transform="matrix(12,0,0,12,365.869852,675.543624)">
                    <path d="M-0.005,-0L0.31,-0.7L0.438,-0.7L0.754,-0L0.618,-0L0.347,-0.631L0.399,-0.631L0.129,-0L-0.005,-0ZM0.14,-0.162L0.175,-0.264L0.553,-0.264L0.588,-0.162L0.14,-0.162Z" style="fill:white;fill-rule:nonzero;"/>
                </g>
                <g transform="matrix(12,0,0,12,374.857852,675.543624)">
                    <path d="M0.094,-0L0.094,-0.7L0.382,-0.7C0.444,-0.7 0.497,-0.69 0.541,-0.67C0.586,-0.65 0.62,-0.621 0.644,-0.584C0.668,-0.547 0.68,-0.502 0.68,-0.451C0.68,-0.4 0.668,-0.355 0.644,-0.319C0.62,-0.282 0.586,-0.253 0.541,-0.234C0.497,-0.214 0.444,-0.204 0.382,-0.204L0.166,-0.204L0.224,-0.263L0.224,-0L0.094,-0ZM0.552,-0L0.375,-0.254L0.514,-0.254L0.692,-0L0.552,-0ZM0.224,-0.249L0.166,-0.311L0.376,-0.311C0.433,-0.311 0.476,-0.323 0.506,-0.348C0.535,-0.373 0.549,-0.407 0.549,-0.451C0.549,-0.496 0.535,-0.53 0.506,-0.554C0.476,-0.578 0.433,-0.59 0.376,-0.59L0.166,-0.59L0.224,-0.654L0.224,-0.249Z" style="fill:white;fill-rule:nonzero;"/>
                </g>
                <g transform="matrix(12,0,0,12,383.629852,675.543624)">
                    <rect x="0.094" y="-0.7" width="0.13" height="0.7" style="fill:white;fill-rule:nonzero;"/>
                </g>
                <g transform="matrix(12,0,0,12,387.457852,675.543624)">
                    <path d="M-0.005,-0L0.31,-0.7L0.438,-0.7L0.754,-0L0.618,-0L0.347,-0.631L0.399,-0.631L0.129,-0L-0.005,-0ZM0.14,-0.162L0.175,-0.264L0.553,-0.264L0.588,-0.162L0.14,-0.162Z" style="fill:white;fill-rule:nonzero;"/>
                </g>
            </g>
        </g>
        <g transform="matrix(7.929664,0,0,7.929664,-2169.869961,-4721.626296)">
            <g>
                <g transform="matrix(19.859637,0,0,19.859637,311.677852,675.543624)">
                    <path d="M0.083,-0L0.083,-0.7L0.425,-0.7C0.513,-0.7 0.579,-0.683 0.624,-0.65C0.668,-0.617 0.69,-0.573 0.69,-0.518C0.69,-0.481 0.681,-0.45 0.663,-0.422C0.645,-0.396 0.62,-0.375 0.589,-0.36C0.558,-0.345 0.522,-0.338 0.481,-0.338L0.5,-0.379C0.544,-0.379 0.583,-0.372 0.617,-0.357C0.651,-0.343 0.678,-0.322 0.697,-0.294C0.716,-0.266 0.725,-0.232 0.725,-0.191C0.725,-0.131 0.701,-0.084 0.654,-0.051C0.607,-0.017 0.537,-0 0.445,-0L0.083,-0ZM0.244,-0.122L0.433,-0.122C0.475,-0.122 0.507,-0.129 0.528,-0.143C0.55,-0.156 0.561,-0.178 0.561,-0.208C0.561,-0.237 0.55,-0.259 0.528,-0.274C0.507,-0.288 0.475,-0.295 0.433,-0.295L0.232,-0.295L0.232,-0.413L0.405,-0.413C0.444,-0.413 0.474,-0.42 0.495,-0.433C0.517,-0.447 0.527,-0.468 0.527,-0.496C0.527,-0.523 0.517,-0.544 0.495,-0.557C0.474,-0.571 0.444,-0.578 0.405,-0.578L0.244,-0.578L0.244,-0.122Z" style="fill:white;fill-rule:nonzero;"/>
                </g>
                <g transform="matrix(19.859637,0,0,19.859637,326.870475,675.543624)">
                    <path d="M0.394,0.012C0.295,0.012 0.217,-0.016 0.161,-0.071C0.105,-0.126 0.077,-0.205 0.077,-0.308L0.077,-0.7L0.239,-0.7L0.239,-0.314C0.239,-0.247 0.253,-0.199 0.28,-0.17C0.307,-0.141 0.346,-0.126 0.395,-0.126C0.444,-0.126 0.483,-0.141 0.51,-0.17C0.537,-0.199 0.551,-0.247 0.551,-0.314L0.551,-0.7L0.711,-0.7L0.711,-0.308C0.711,-0.205 0.683,-0.126 0.627,-0.071C0.571,-0.016 0.493,0.012 0.394,0.012Z" style="fill:white;fill-rule:nonzero;"/>
                </g>
                <g transform="matrix(19.859637,0,0,19.859637,342.519869,675.543624)">
                    <path d="M0.083,-0L0.083,-0.7L0.245,-0.7L0.245,-0.132L0.596,-0.132L0.596,-0L0.083,-0Z" style="fill:white;fill-rule:nonzero;"/>
                </g>
                <g transform="matrix(19.859637,0,0,19.859637,354.51509,675.543624)">
                    <path d="M0.083,-0L0.083,-0.7L0.217,-0.7L0.63,-0.196L0.565,-0.196L0.565,-0.7L0.725,-0.7L0.725,-0L0.592,-0L0.178,-0.504L0.243,-0.504L0.243,-0L0.083,-0Z" style="fill:white;fill-rule:nonzero;"/>
                </g>
                <g transform="matrix(19.859637,0,0,19.859637,370.561677,675.543624)">
                    <path d="M0.232,-0.418L0.569,-0.418L0.569,-0.292L0.232,-0.292L0.232,-0.418ZM0.244,-0.13L0.625,-0.13L0.625,-0L0.083,-0L0.083,-0.7L0.612,-0.7L0.612,-0.57L0.244,-0.57L0.244,-0.13Z" style="fill:white;fill-rule:nonzero;"/>
                </g>
                <g transform="matrix(19.859637,0,0,19.859637,383.887493,675.543624)">
                    <path d="M0.313,0.012C0.257,0.012 0.203,0.004 0.152,-0.011C0.101,-0.025 0.059,-0.045 0.028,-0.069L0.083,-0.191C0.113,-0.17 0.148,-0.152 0.19,-0.139C0.231,-0.125 0.272,-0.118 0.314,-0.118C0.346,-0.118 0.372,-0.121 0.392,-0.128C0.411,-0.134 0.426,-0.143 0.435,-0.154C0.444,-0.165 0.449,-0.178 0.449,-0.193C0.449,-0.212 0.442,-0.227 0.427,-0.238C0.412,-0.249 0.393,-0.258 0.369,-0.265C0.345,-0.272 0.319,-0.278 0.289,-0.285C0.261,-0.291 0.232,-0.299 0.203,-0.308C0.173,-0.317 0.147,-0.329 0.123,-0.344C0.099,-0.359 0.08,-0.378 0.065,-0.402C0.05,-0.426 0.042,-0.457 0.042,-0.494C0.042,-0.534 0.053,-0.571 0.074,-0.604C0.096,-0.636 0.129,-0.663 0.173,-0.682C0.216,-0.702 0.271,-0.712 0.337,-0.712C0.381,-0.712 0.424,-0.707 0.467,-0.697C0.51,-0.686 0.547,-0.671 0.58,-0.65L0.53,-0.527C0.497,-0.546 0.465,-0.559 0.432,-0.569C0.399,-0.578 0.367,-0.582 0.336,-0.582C0.305,-0.582 0.279,-0.578 0.259,-0.571C0.239,-0.564 0.225,-0.554 0.216,-0.542C0.207,-0.531 0.203,-0.517 0.203,-0.502C0.203,-0.484 0.21,-0.47 0.225,-0.459C0.24,-0.448 0.259,-0.439 0.283,-0.432C0.307,-0.425 0.333,-0.419 0.362,-0.412C0.392,-0.405 0.421,-0.398 0.45,-0.389C0.478,-0.38 0.505,-0.369 0.529,-0.354C0.553,-0.339 0.573,-0.32 0.588,-0.296C0.603,-0.272 0.61,-0.242 0.61,-0.205C0.61,-0.166 0.599,-0.13 0.577,-0.097C0.555,-0.064 0.522,-0.038 0.479,-0.018C0.435,0.002 0.38,0.012 0.313,0.012Z" style="fill:white;fill-rule:nonzero;"/>
                </g>
            </g>
        </g>
    </g>
</svg>
